<?xml version="1.0" standalone="no"?>
<!DOCTYPE svg PUBLIC "-//W3C//DTD SVG 20010904//EN"
 "http://www.w3.org/TR/2001/REC-SVG-20010904/DTD/svg10.dtd">
<svg version="1.0" xmlns="http://www.w3.org/2000/svg"
 width="285.000000pt" height="311.000000pt" viewBox="0 0 285.000000 311.000000"
 preserveAspectRatio="xMidYMid meet">

<g transform="translate(0.000000,311.000000) scale(0.100000,-0.100000)"
fill="#000000" stroke="none">
<path d="M1341 2015 c-30 -9 -70 -27 -89 -42 -43 -32 -82 -115 -89 -188 l-6
-55 313 0 313 0 -7 56 c-13 115 -71 200 -153 224 -64 19 -221 22 -282 5z m21
-109 c4 -6 8 -15 8 -21 -1 -5 -5 -2 -11 8 -5 9 -22 17 -36 17 -15 0 -35 -8
-46 -17 -16 -14 -19 -15 -15 -3 11 35 81 46 100 16z m299 5 c13 -11 20 -23 16
-28 -5 -4 -13 0 -18 10 -12 21 -52 22 -74 1 -24 -24 -28 -11 -5 14 25 27 51
28 81 3z m-126 -131 c-3 -5 -12 -10 -18 -10 -7 0 -6 4 3 10 19 12 23 12 15 0z
m-42 -17 c-7 -2 -19 -2 -25 0 -7 3 -2 5 12 5 14 0 19 -2 13 -5z"/>
<path d="M1362 819 c-40 -4 -78 -12 -85 -18 -7 -6 -29 -8 -48 -5 -22 4 -41 0
-54 -9 -19 -14 -18 -16 21 -26 127 -34 470 -39 611 -8 99 22 100 36 1 46 -35
4 -68 10 -75 14 -16 10 -282 15 -371 6z"/>
</g>
</svg>
